#N canvas 61 91 1615 912 10;
#X declare -path abs;
#X declare -lib zexy;
#X obj 71 112 *~;
#X floatatom 98 92 5 0 0 0 - - -, f 5;
#X obj 639 666 *~;
#X obj 663 637 vline~;
#X msg 834 611 0 20;
#X msg 795 611 1 20;
#X floatatom 639 544 5 0 0 0 - - -, f 5;
#X msg 606 496 440;
#X obj 585 528 t b f;
#X obj 575 106 metro 500;
#X obj 575 44 tgl 20 0 empty empty empty 17 7 0 10 -4034 -1 -1 0 1
;
#X obj 575 161 f;
#X obj 575 182 t f f;
#X obj 604 161 + 1;
#X msg 588 137 0;
#X obj 575 399 t a;
#X obj 575 479 mtof;
#X text 798 591 on;
#X text 836 592 off;
#X floatatom 575 423 5 0 0 0 - - -, f 5;
#X obj 83 394 print pitch1;
#X floatatom 162 304 5 0 0 0 - - -, f 5;
#X obj 71 291 t f b;
#X msg 162 327 set \$1;
#X msg 162 349 55.7213;
#X obj 162 393 print amplitude;
#X floatatom 71 347 5 0 0 0 - - -, f 5;
#X obj 575 74 t f b;
#X obj 98 314 t b b;
#X obj 154 423 t b b;
#X obj 71 367 t f f;
#X floatatom 71 457 5 0 0 0 - - -, f 5;
#X obj 71 477 i;
#X msg 338 79 \; pd dsp 1;
#X obj 138 83 loadbang;
#X msg 138 103 1;
#X text 596 43 play sequenz;
#X obj 716 568 cnv 15 120 17 empty empty <-Klangerzeugung 2 8 0 12
-204786 -66577 0;
#X obj 340 46 declare -path abs;
#X obj 820 357 step 1 soll-melodie;
#N canvas 0 23 577 352 (subpatch) 0;
#X array soll-melodie 17 float 3;
#A 0 32.5664 50 0 57 0 53 0 50 0 49 0 50 52 53 0 55 52;
#X coords 1 70 17 40 481 300 1 0 0;
#X restore 820 57 graph;
#X obj 575 346 tabread soll-melodie;
#X obj 575 367 sel 0;
#X obj 575 202 % 16;
#X floatatom 575 247 5 0 0 0 - - -, f 5;
#X obj 605 291 s step;
#X obj 575 268 t f f;
#X obj 575 224 + 1;
#X obj 1148 405 cnv 15 150 190 empty empty Save_&_Load 18 12 0 12 -204786
-66577 0;
#X obj 1163 428 bng 20 250 50 0 empty empty empty 17 7 0 10 -258113
-1 -1;
#X obj 1163 453 savepanel;
#X msg 1163 534 write \$1;
#X obj 1228 429 bng 20 250 50 0 empty empty empty 17 7 0 10 -4034 -1
-1;
#X obj 1228 453 openpanel;
#X msg 1228 534 read \$1;
#X obj 1163 568 s soll-melodie;
#N canvas 0 23 450 278 (subpatch) 0;
#X array input-melodie 17 float 3;
#A 0 1 1 1 57 1 53 1 1 1 1 1 1 1 1 1 55 1;
#X coords 1 90 17 30 200 140 1 0 0;
#X restore 330 463 graph;
#X obj 170 478 r step;
#X obj 71 793 tabwrite input-melodie;
#X obj 639 839 *~;
#X obj 771 779 vsl 15 50 0.01 1 1 0 empty empty empty 0 -9 0 10 -4034
-1 -1 3919 1;
#X obj 790 777 cnv 15 120 17 empty empty <-MasterVolume 2 8 0 12 -204786
-66577 0;
#X msg 665 605 0.7 50 \, 0 500 500;
#X obj 597 440 nbx 5 14 -1e+37 1e+37 0 0 empty empty empty 0 -8 0 10
-4034 -1 -1 0 256;
#X obj 659 439 cnv 15 85 17 empty empty <-transpose 2 8 0 12 -204786
-66577 0;
#X obj 683 757 - 0.01;
#X floatatom 683 777 5 0 0 0 - - -, f 5;
#X obj 71 715 spigot;
#X obj 119 689 tgl 20 0 empty empty empty 17 7 0 10 -4034 -1 -1 1 1
;
#X msg 587 310 set soll-melodie;
#X msg 597 328 set input-melodie;
#X floatatom 71 512 5 0 0 0 - - -, f 5;
#X obj 71 437 + 0.5;
#X obj 157 570 t b f f;
#X obj 223 620 tabread soll-melodie;
#X obj 196 640 tabread input-melodie;
#X obj 196 666 !=;
#X obj 196 593 t f f;
#X obj 231 710 s input-melodie;
#X msg 231 687 const 0;
#X obj 288 688 cnv 15 160 17 empty empty <-reset_Input-Melodie 2 8
0 12 -204786 -66577 0;
#X obj 71 765 spigot;
#X obj 119 739 tgl 20 0 empty empty empty 17 7 0 10 -4034 -1 -1 1 1
;
#X msg 1234 493 symbol /Volumes/DATA/uni/HAW/2018/Mendieninformatik-ausgewaehlteThemen/audioProzessingforMINF/midi-files/fuge.txt
;
#X msg 1234 472 set symbol \$1;
#X obj 1334 472 loadbang;
#X obj 357 623 cnv 15 170 17 empty empty <-compare_input_to_soll 2
8 0 12 -204786 -66577 0;
#X obj 187 153 cnv 15 125 17 empty empty <-pitch_detection 2 8 0 12
-204786 -66577 0;
#X obj 341 218 cnv 15 145 17 empty empty <-threshold_settings 2 8 0
12 -204786 -66577 0;
#X obj 693 318 cnv 15 190 17 empty empty <-change_replay_soll-input
2 8 0 12 -204786 -66577 0;
#X text 913 623 es kann eine molodie gewählt und abgespielt werden.
im moment müsste noch der step sequenzer eingeblendet werden. dann
kann man ins mik;
#X obj 112 459 cnv 15 210 17 empty empty ]-quantize_to_full_midi_notes
2 8 0 12 -204786 -66577 0;
#X obj 1354 706 cnv 15 15 15 empty empty / 2 8 0 12 -204786 -66577
0;
#X obj 1353 691 cnv 15 15 15 empty empty empty 2 8 0 12 -204786 -66577
0;
#N canvas 99 59 452 644 %correct 0;
#X obj 55 576 outlet;
#X obj 74 25 r \$0-metro;
#X obj 91 243 tabread input-melodie;
#X obj 72 274 tabread soll-melodie;
#X obj 78 134 until;
#X msg 78 113 16;
#X obj 72 193 f;
#X obj 99 193 + 1;
#X obj 72 214 t f f f;
#X msg 95 165 1;
#X obj 65 53 bng 15 250 50 0 empty empty empty 17 7 0 10 -262144 -1
-1;
#X obj 45 318 sel 0;
#X obj 100 308 sel 0;
#X obj 72 349 ==;
#X obj 67 427 f;
#X obj 105 427 + 1;
#X obj 55 554 nbx 3 14 -1e+37 1e+37 0 0 empty empty % 45 8 0 12 -204786
-1 -1 30 256;
#X obj 105 479 * 10;
#X obj 198 434 print correct;
#X obj 196 394 pack f f;
#X msg 146 367 0;
#X obj 105 458 t f f;
#X obj 68 83 t b b b b;
#X obj 72 379 t b f;
#X msg 105 500 set \$1;
#X connect 1 0 10 0;
#X connect 2 0 12 0;
#X connect 3 0 11 0;
#X connect 4 0 6 0;
#X connect 5 0 4 0;
#X connect 6 0 8 0;
#X connect 7 0 6 1;
#X connect 8 0 3 0;
#X connect 8 1 2 0;
#X connect 8 2 7 0;
#X connect 8 2 19 1;
#X connect 9 0 6 1;
#X connect 10 0 22 0;
#X connect 11 1 13 0;
#X connect 12 1 13 1;
#X connect 13 0 23 0;
#X connect 14 0 15 0;
#X connect 15 0 21 0;
#X connect 16 0 0 0;
#X connect 17 0 24 0;
#X connect 20 0 14 1;
#X connect 21 0 17 0;
#X connect 21 1 14 1;
#X connect 22 0 16 0;
#X connect 22 1 5 0;
#X connect 22 2 9 0;
#X connect 22 3 20 0;
#X connect 23 0 14 0;
#X connect 23 1 15 1;
#X connect 24 0 16 0;
#X restore 473 668 pd %correct;
#X obj 850 357 step 2 soll-melodie;
#X obj 880 357 step 3 soll-melodie;
#X obj 910 357 step 4 soll-melodie;
#X obj 940 357 step 5 soll-melodie;
#X obj 970 357 step 6 soll-melodie;
#X obj 1000 357 step 7 soll-melodie;
#X obj 1030 357 step 8 soll-melodie;
#X obj 1060 357 step 9 soll-melodie;
#X obj 1090 357 step 10 soll-melodie;
#X obj 1120 357 step 11 soll-melodie;
#X obj 1150 357 step 12 soll-melodie;
#X obj 1180 357 step 13 soll-melodie;
#X obj 1210 357 step 14 soll-melodie;
#X obj 1240 357 step 15 soll-melodie;
#X obj 1270 357 step 16 soll-melodie;
#N canvas 0 23 919 625 table-init 0;
#X obj 250 316 tabwrite soll-melodie;
#X obj 293 250 t f f;
#X obj 320 229 + 1;
#X obj 293 229 f;
#X obj 256 116 t b b;
#X msg 307 200 1;
#X obj 256 90 bng 15 250 50 0 empty empty empty 17 7 0 10 -262144 -1
-1;
#X msg 250 166 50 \, 0 \, 57 \, 0 \, 53 \, 0 \, 50 \, 0 \, 49 \, 0
\, 50 \, 52 \, 53 \, 0 \, 55 \, 52;
#X obj 250 197 t f b;
#X connect 1 0 0 1;
#X connect 1 1 2 0;
#X connect 2 0 3 1;
#X connect 3 0 1 0;
#X connect 4 0 7 0;
#X connect 4 1 5 0;
#X connect 5 0 3 1;
#X connect 6 0 4 0;
#X connect 7 0 8 0;
#X connect 8 0 0 0;
#X connect 8 1 3 0;
#X restore 1370 267 pd table-init;
#X obj 476 24 loadbang;
#X msg 476 45 1;
#X obj 634 135 s \$0-metro;
#X obj 473 692 nbx 3 14 -1e+37 1e+37 0 0 empty empty % 45 8 0 12 -204786
-1 -1 30 256;
#X obj 473 715 change;
#X obj 473 754 line 0 20;
#X msg 473 735 \$1 1000;
#X obj 473 776 nbx 5 20 -1e+37 1e+37 0 0 empty empty % 85 10 0 16 -4034
-1 -1 30 256;
#X msg 233 303 \; input-melodie const 1;
#X obj 376 305 cnv 15 140 17 empty empty <-reset_input_table 2 8 0
12 -204786 -66577 0;
#X msg 81 692 0;
#X floatatom 58 186 5 0 0 0 - - -, f 5;
#X text 227 228 pitch;
#X obj 64 252 spigot;
#X obj 107 225 tgl 15 0 empty empty empty 17 7 0 10 -262144 -1 -1 0
1;
#X obj 476 67 s \$0-loadbang-1;
#X obj 119 718 r \$0-loadbang-1;
#X obj 900 761 r \$0-loadbang-1;
#X obj 869 477 cnv 15 100 60 empty empty empty 20 12 0 14 -261234 -66577
0;
#N canvas 692 38 450 300 test_adc2dac 0;
#X obj 126 113 adc~;
#X obj 128 146 *~ 4;
#X obj 158 146 *~ 4;
#X obj 126 176 dac~ 1 2 3 4;
#X connect 0 0 1 0;
#X connect 0 1 2 0;
#X restore 871 499 pd test_adc2dac;
#X obj 70 2 adc~ 1 2;
#X obj 639 871 dac~ 1 2;
#X obj 473 826 s correct;
#X floatatom 433 804 5 0 0 0 - - -, f 5;
#X obj 575 460 + 0;
#N canvas 353 46 885 627 pitch-tracking 0;
#X obj 60 8 inlet~;
#X obj 315 32 loadbang;
#X msg 315 53 1;
#X obj 205 83 vu 15 120 empty empty -1 -8 0 10 -66577 -1 1 0;
#X obj 204 60 - 100;
#X floatatom 203 208 5 0 0 0 - - -, f 5;
#N canvas 733 287 753 741 fft 0;
#X obj 46 -2 inlet~;
#X obj 46 129 rfft~;
#X obj 46 161 *~;
#X obj 77 161 *~;
#X text 244 28 44100 / 8 = 5512.5;
#X obj 239 44 block~ 1024 2 0.125;
#X obj 167 188 bang~;
#X obj 74 251 tabwrite~ spectrum;
#X obj 46 99 *~;
#X obj 46 191 +~;
#X obj 46 212 sqrt~;
#X obj 66 80 tabreceive~ hanning;
#X obj 332 561 samplerate~;
#X floatatom 332 582 0 0 0 0 - - -;
#X obj 332 539 bng 15 250 50 0 empty empty empty 17 7 0 10 -262144
-1 -1;
#X obj 308 292 array max spectrum;
#X floatatom 283 676 0 0 0 0 - - -;
#X obj 283 699 ftom;
#X obj 332 514 loadbang;
#X obj 332 603 / 1024;
#X text 341 652 multiply by samplerate / fft-window-size;
#X floatatom 283 721 5 0 0 0 - - -, f 5;
#X obj 283 746 outlet;
#X obj 283 652 * 5.3833;
#X floatatom 332 624 5 0 0 0 - - -, f 5;
#X obj 505 274 outlet;
#X floatatom 159 156 5 0 0 0 - - -, f 5;
#X obj 159 134 env~;
#X text 509 257 debug outlet;
#X floatatom 413 317 5 0 0 0 - - -, f 5;
#X obj 117 369 until;
#X obj 117 400 f;
#X obj 147 400 + 1;
#X obj 117 332 t f b;
#X msg 156 370 0;
#X obj 117 474 tabread spectrum;
#X obj 117 519 >;
#X obj 117 421 t f f f;
#X msg 32 542 set \$1;
#X floatatom 32 563 5 0 0 0 - - -, f 5;
#X msg 32 583 set \$1;
#X floatatom 32 604 5 0 0 0 - - -, f 5;
#X obj 168 215 t b b b;
#X floatatom 32 639 5 0 0 0 - - -, f 5;
#X floatatom 192 453 5 0 0 0 - - -, f 5;
#X floatatom 308 312 5 0 0 0 - - -, f 5;
#X obj 117 540 sel 1;
#X msg 170 519 set \$1;
#X floatatom 170 540 5 0 0 0 - - -, f 5;
#X obj 117 562 t b b;
#X obj 117 496 t f f;
#X msg 117 311 512;
#X text 225 406 this is an [array max] handmade;
#X obj 241 173 metro 20;
#X obj 239 151 tgl 15 0 empty empty empty 17 7 0 10 -262144 -1 -1 1
1;
#X obj 239 103 loadbang;
#X msg 239 124 1;
#X obj 46 18 lop~ 800;
#X obj 46 38 lop~ 800;
#X obj 46 58 lop~ 800;
#X connect 0 0 57 0;
#X connect 1 0 2 0;
#X connect 1 0 2 1;
#X connect 1 1 3 0;
#X connect 1 1 3 1;
#X connect 2 0 9 0;
#X connect 3 0 9 0;
#X connect 8 0 1 0;
#X connect 9 0 10 0;
#X connect 10 0 7 0;
#X connect 10 0 27 0;
#X connect 11 0 8 1;
#X connect 12 0 13 0;
#X connect 13 0 19 0;
#X connect 14 0 12 0;
#X connect 15 0 45 0;
#X connect 15 1 29 0;
#X connect 16 0 17 0;
#X connect 17 0 21 0;
#X connect 18 0 14 0;
#X connect 19 0 24 0;
#X connect 21 0 22 0;
#X connect 23 0 16 0;
#X connect 24 0 23 1;
#X connect 26 0 25 0;
#X connect 27 0 26 0;
#X connect 30 0 31 0;
#X connect 31 0 37 0;
#X connect 32 0 31 1;
#X connect 33 0 30 0;
#X connect 33 1 34 0;
#X connect 34 0 31 1;
#X connect 34 0 36 1;
#X connect 35 0 50 0;
#X connect 36 0 46 0;
#X connect 37 0 35 0;
#X connect 37 1 38 0;
#X connect 37 2 32 0;
#X connect 38 0 39 0;
#X connect 39 0 40 0;
#X connect 40 0 41 0;
#X connect 41 0 43 0;
#X connect 42 0 41 0;
#X connect 42 1 51 0;
#X connect 42 1 15 0;
#X connect 42 2 7 0;
#X connect 43 0 23 0;
#X connect 44 0 35 0;
#X connect 46 0 49 0;
#X connect 47 0 48 0;
#X connect 48 0 36 1;
#X connect 49 0 39 0;
#X connect 49 1 48 0;
#X connect 50 0 36 0;
#X connect 50 1 47 0;
#X connect 51 0 33 0;
#X connect 53 0 42 0;
#X connect 54 0 53 0;
#X connect 55 0 56 0;
#X connect 56 0 54 0;
#X connect 57 0 58 0;
#X connect 58 0 59 0;
#X connect 59 0 8 0;
#X restore 59 184 pd fft;
#X msg 350 53 0;
#X obj 728 68 dsp;
#X floatatom 764 88 5 0 0 0 - - -, f 5;
#X floatatom 728 88 5 0 0 0 - - -, f 5;
#X obj 728 45 tgl 20 0 empty empty empty 17 7 0 10 -257985 -1 -1 0
1;
#X obj 315 87 switch~ 64 1 1;
#N canvas 401 190 578 413 hanning 0;
#X obj 61 78 t f b;
#X obj 61 100 until;
#X obj 61 145 f;
#X obj 91 145 + 1;
#X msg 79 122 0;
#X obj 61 235 cos;
#X obj 61 257 swap 1;
#X obj 61 279 -;
#X obj 61 301 * 0.5;
#X obj 61 167 t f f;
#X obj 61 189 *;
#X msg 124 105 1;
#X obj 124 127 atan;
#X obj 124 149 * 8;
#X obj 61 31 inlet;
#X obj 61 53 t f b;
#X obj 108 195 r \$0-size;
#X obj 61 323 tabwrite hanning;
#X obj 61 212 / 1024;
#X connect 0 0 1 0;
#X connect 0 1 4 0;
#X connect 1 0 2 0;
#X connect 2 0 3 0;
#X connect 2 0 9 0;
#X connect 3 0 2 1;
#X connect 4 0 2 1;
#X connect 5 0 6 0;
#X connect 6 0 7 0;
#X connect 6 1 7 1;
#X connect 7 0 8 0;
#X connect 8 0 17 0;
#X connect 9 0 10 0;
#X connect 9 1 17 1;
#X connect 10 0 18 0;
#X connect 11 0 12 0;
#X connect 12 0 13 0;
#X connect 13 0 10 1;
#X connect 14 0 15 0;
#X connect 15 0 0 0;
#X connect 15 1 11 0;
#X connect 16 0 18 1;
#X connect 18 0 5 0;
#X restore 676 168 pd hanning;
#X msg 676 147 1024;
#X floatatom 167 171 5 0 0 0 - - -, f 5;
#X floatatom 59 245 5 0 0 0 - - -, f 5;
#X obj 204 39 env~ 1024 64;
#X msg 139 486 set \$1;
#X floatatom 139 507 5 0 0 0 - - -, f 5;
#X obj 167 353 sel 1;
#X text 201 242 amplitude threshold;
#X obj 167 331 spigot;
#X obj 167 374 t b b b;
#X msg 184 292 0;
#X obj 200 313 tgl 15 0 empty empty empty 17 7 0 10 -262144 -1 -1 0
1;
#X msg 212 293 1;
#X obj 163 416 bng 15 250 50 0 empty empty empty 17 7 0 10 -262144
-1 -1;
#X obj 139 528 outlet;
#X obj 167 214 t f f;
#X obj 316 416 outlet;
#X obj 15 428 outlet;
#X obj 57 274 t f f;
#X text 362 416 amplitude outlet;
#X text 61 447 pitch outlet;
#X text 185 509 cooked pitch outlet;
#X text 447 366 debug outlet;
#X obj 447 389 outlet;
#N canvas 0 23 450 278 (subpatch) 0;
#X array hanning 1024 float 3;
#A 0 0 9.41753e-06 3.76403e-05 8.46982e-05 0.000150591 0.000235289
0.000338823 0.000461131 0.000602275 0.000762224 0.000940949 0.00113848
0.00135478 0.00158986 0.00184369 0.00211629 0.00240764 0.0027177 0.00304651
0.00339404 0.00376022 0.00414512 0.00454867 0.00497091 0.00541174 0.00587121
0.0063493 0.00684595 0.00736117 0.00789496 0.00844726 0.00901806 0.00960737
0.0102151 0.0108413 0.0114859 0.0121489 0.0128303 0.01353 0.014248
0.0149844 0.015739 0.0165118 0.0173028 0.018112 0.0189393 0.0197847
0.0206483 0.0215298 0.0224294 0.023347 0.0242825 0.0252359 0.0262072
0.0271963 0.0282033 0.029228 0.0302704 0.0313305 0.0324082 0.0335036
0.0346165 0.035747 0.0368949 0.0380602 0.039243 0.0404431 0.0416605
0.0428951 0.044147 0.045416 0.0467021 0.0480053 0.0493256 0.0506628
0.0520169 0.0533879 0.0547756 0.0561802 0.0576015 0.0590394 0.0604939
0.061965 0.0634525 0.0649565 0.0664769 0.0680136 0.0695665 0.0711357
0.072721 0.0743224 0.0759398 0.0775732 0.0792225 0.0808876 0.0825686
0.0842652 0.0859775 0.0877053 0.0894488 0.0912076 0.0929818 0.0947714
0.0965762 0.0983962 0.100231 0.102082 0.103947 0.105827 0.107722 0.109631
0.111556 0.113495 0.115448 0.117416 0.119399 0.121396 0.123407 0.125432
0.127471 0.129524 0.131592 0.133673 0.135768 0.137876 0.139999 0.142135
0.144284 0.146447 0.148623 0.150812 0.153014 0.15523 0.157458 0.159699
0.161954 0.164221 0.1665 0.168792 0.171097 0.173414 0.175743 0.178084
0.180438 0.182803 0.185181 0.18757 0.189971 0.192384 0.194809 0.197244
0.199692 0.20215 0.20462 0.207101 0.209593 0.212096 0.21461 0.217134
0.219669 0.222215 0.224771 0.227338 0.229914 0.232501 0.235098 0.237705
0.240322 0.242949 0.245585 0.248231 0.250886 0.253551 0.256225 0.258908
0.2616 0.264302 0.267012 0.269731 0.272458 0.275194 0.277939 0.280692
0.283453 0.286222 0.289 0.291785 0.294578 0.297379 0.300188 0.303004
0.305827 0.308658 0.311496 0.314341 0.317194 0.320053 0.322918 0.325791
0.32867 0.331555 0.334447 0.337345 0.340249 0.343159 0.346075 0.348997
0.351925 0.354858 0.357796 0.36074 0.363689 0.366644 0.369603 0.372567
0.375536 0.37851 0.381488 0.384471 0.387458 0.390449 0.393445 0.396444
0.399448 0.402455 0.405466 0.40848 0.411498 0.414519 0.417543 0.420571
0.423601 0.426635 0.429671 0.43271 0.435751 0.438795 0.441841 0.444889
0.447939 0.450991 0.454046 0.457101 0.460159 0.463218 0.466278 0.46934
0.472402 0.475466 0.478531 0.481596 0.484663 0.487729 0.490797 0.493864
0.496932 0.5 0.503068 0.506136 0.509203 0.512271 0.515337 0.518404
0.521469 0.524534 0.527598 0.53066 0.533722 0.536782 0.539841 0.542899
0.545955 0.549009 0.552061 0.555111 0.558159 0.561205 0.564249 0.56729
0.570329 0.573365 0.576399 0.579429 0.582457 0.585481 0.588502 0.59152
0.594534 0.597545 0.600552 0.603556 0.606555 0.609551 0.612542 0.615529
0.618512 0.62149 0.624464 0.627433 0.630397 0.633356 0.636311 0.63926
0.642204 0.645142 0.648075 0.651003 0.653925 0.656841 0.659751 0.662655
0.665553 0.668445 0.67133 0.674209 0.677082 0.679947 0.682806 0.685659
0.688504 0.691342 0.694173 0.696996 0.699812 0.702621 0.705422 0.708215
0.711 0.713778 0.716547 0.719308 0.722061 0.724806 0.727542 0.730269
0.732988 0.735698 0.7384 0.741092 0.743775 0.746449 0.749114 0.751769
0.754415 0.757051 0.759678 0.762295 0.764902 0.767499 0.770086 0.772663
0.775229 0.777785 0.780331 0.782866 0.78539 0.787904 0.790407 0.792899
0.79538 0.79785 0.800308 0.802756 0.805191 0.807616 0.810029 0.81243
0.814819 0.817197 0.819562 0.821916 0.824257 0.826586 0.828903 0.831208
0.8335 0.83578 0.838046 0.840301 0.842542 0.84477 0.846986 0.849188
0.851377 0.853553 0.855716 0.857865 0.860001 0.862124 0.864232 0.866327
0.868408 0.870476 0.872529 0.874568 0.876593 0.878604 0.880601 0.882584
0.884552 0.886505 0.888444 0.890369 0.892278 0.894173 0.896053 0.897918
0.899769 0.901604 0.903424 0.905229 0.907018 0.908792 0.910551 0.912295
0.914023 0.915735 0.917431 0.919112 0.920778 0.922427 0.92406 0.925678
0.927279 0.928864 0.930434 0.931986 0.933523 0.935044 0.936548 0.938035
0.939506 0.940961 0.942399 0.94382 0.945224 0.946612 0.947983 0.949337
0.950674 0.951995 0.953298 0.954584 0.955853 0.957105 0.95834 0.959557
0.960757 0.96194 0.963105 0.964253 0.965383 0.966496 0.967592 0.96867
0.96973 0.970772 0.971797 0.972804 0.973793 0.974764 0.975718 0.976653
0.977571 0.97847 0.979352 0.980215 0.981061 0.981888 0.982697 0.983488
0.984261 0.985016 0.985752 0.98647 0.98717 0.987851 0.988514 0.989159
0.989785 0.990393 0.990982 0.991553 0.992105 0.992639 0.993154 0.993651
0.994129 0.994588 0.995029 0.995451 0.995855 0.99624 0.996606 0.996953
0.997282 0.997592 0.997884 0.998156 0.99841 0.998645 0.998862 0.999059
0.999238 0.999398 0.999539 0.999661 0.999765 0.999849 0.999915 0.999962
0.999991 1 0.999991 0.999962 0.999915 0.999849 0.999765 0.999661 0.999539
0.999398 0.999238 0.999059 0.998862 0.998645 0.99841 0.998156 0.997884
0.997592 0.997282 0.996953 0.996606 0.99624 0.995855 0.995451 0.995029
0.994588 0.994129 0.993651 0.993154 0.992639 0.992105 0.991553 0.990982
0.990393 0.989785 0.989159 0.988514 0.987851 0.98717 0.98647 0.985752
0.985016 0.984261 0.983488 0.982697 0.981888 0.981061 0.980215 0.979352
0.97847 0.977571 0.976653 0.975718 0.974764 0.973793 0.972804 0.971797
0.970772 0.96973 0.968669 0.967592 0.966496 0.965383 0.964253 0.963105
0.96194 0.960757 0.959557 0.95834 0.957105 0.955853 0.954584 0.953298
0.951995 0.950674 0.949337 0.947983 0.946612 0.945224 0.94382 0.942399
0.940961 0.939506 0.938035 0.936547 0.935043 0.933523 0.931986 0.930433
0.928864 0.927279 0.925678 0.92406 0.922427 0.920777 0.919112 0.917431
0.915735 0.914023 0.912295 0.910551 0.908792 0.907018 0.905229 0.903424
0.901604 0.899769 0.897918 0.896053 0.894173 0.892278 0.890369 0.888444
0.886505 0.884552 0.882584 0.880601 0.878604 0.876593 0.874568 0.872529
0.870476 0.868408 0.866327 0.864232 0.862123 0.860001 0.857865 0.855716
0.853553 0.851377 0.849188 0.846986 0.84477 0.842542 0.840301 0.838046
0.835779 0.8335 0.831208 0.828903 0.826586 0.824257 0.821916 0.819562
0.817197 0.814819 0.81243 0.810029 0.807616 0.805191 0.802755 0.800308
0.79785 0.79538 0.792899 0.790407 0.787904 0.78539 0.782866 0.780331
0.777785 0.775229 0.772662 0.770086 0.767499 0.764902 0.762295 0.759678
0.757051 0.754415 0.751769 0.749114 0.746449 0.743775 0.741092 0.7384
0.735698 0.732988 0.730269 0.727542 0.724806 0.722061 0.719308 0.716547
0.713777 0.711 0.708215 0.705421 0.702621 0.699812 0.696996 0.694172
0.691342 0.688504 0.685659 0.682807 0.679948 0.677082 0.674209 0.67133
0.668445 0.665553 0.662655 0.659751 0.656841 0.653925 0.651003 0.648075
0.645142 0.642204 0.63926 0.636311 0.633356 0.630397 0.627433 0.624464
0.62149 0.618512 0.615529 0.612542 0.60955 0.606555 0.603556 0.600552
0.597545 0.594534 0.59152 0.588502 0.585481 0.582457 0.579429 0.576399
0.573365 0.570329 0.56729 0.564249 0.561205 0.558159 0.555111 0.552061
0.549008 0.545954 0.542899 0.539841 0.536782 0.533722 0.53066 0.527597
0.524534 0.521469 0.518404 0.515337 0.512271 0.509203 0.506136 0.503068
0.5 0.496932 0.493864 0.490797 0.487729 0.484663 0.481596 0.478531
0.475466 0.472402 0.46934 0.466278 0.463218 0.460159 0.457101 0.454045
0.450991 0.447939 0.444889 0.441841 0.438794 0.435751 0.43271 0.429671
0.426635 0.423601 0.420571 0.417543 0.414519 0.411498 0.40848 0.405466
0.402455 0.399448 0.396444 0.393445 0.390449 0.387458 0.384471 0.381488
0.37851 0.375536 0.372567 0.369603 0.366643 0.363689 0.36074 0.357796
0.354858 0.351925 0.348997 0.346075 0.343159 0.340249 0.337345 0.334447
0.331555 0.32867 0.325791 0.322918 0.320052 0.317193 0.314341 0.311496
0.308658 0.305827 0.303004 0.300188 0.297379 0.294578 0.291785 0.289
0.286222 0.283453 0.280692 0.277939 0.275194 0.272458 0.269731 0.267012
0.264302 0.2616 0.258908 0.256225 0.253551 0.250886 0.248231 0.245585
0.242949 0.240322 0.237705 0.235098 0.232501 0.229914 0.227337 0.224771
0.222215 0.219669 0.217134 0.21461 0.212096 0.209593 0.207101 0.20462
0.20215 0.199692 0.197244 0.194809 0.192384 0.189971 0.18757 0.185181
0.182803 0.180438 0.178084 0.175743 0.173414 0.171097 0.168792 0.1665
0.16422 0.161954 0.159699 0.157458 0.15523 0.153014 0.150812 0.148623
0.146446 0.144284 0.142134 0.139999 0.137876 0.135768 0.133673 0.131592
0.129524 0.127471 0.125432 0.123407 0.121396 0.119399 0.117416 0.115448
0.113495 0.111556 0.109631 0.107722 0.105827 0.103947 0.102081 0.100231
0.0983962 0.0965761 0.0947713 0.0929817 0.0912075 0.0894486 0.0877053
0.0859774 0.0842652 0.0825686 0.0808876 0.0792225 0.0775732 0.0759398
0.0743224 0.072721 0.0711357 0.0695665 0.0680135 0.0664769 0.0649565
0.0634525 0.0619649 0.0604938 0.0590393 0.0576014 0.0561801 0.0547756
0.0533878 0.0520168 0.0506627 0.0493255 0.0480053 0.0467021 0.0454159
0.044147 0.0428951 0.0416605 0.0404431 0.039243 0.0380602 0.0368949
0.035747 0.0346165 0.0335036 0.0324082 0.0313305 0.0302704 0.0292279
0.0282032 0.0271963 0.0262072 0.0252359 0.0242825 0.0233469 0.0224294
0.0215298 0.0206482 0.0197847 0.0189393 0.0181119 0.0173027 0.0165117
0.015739 0.0149844 0.014248 0.01353 0.0128303 0.0121489 0.0114859 0.0108413
0.0102151 0.00960734 0.00901806 0.00844723 0.00789493 0.00736117 0.00684595
0.00634927 0.00587121;
#A 1000 0.00541171 0.00497088 0.00454867 0.00414512 0.00376022 0.00339401
0.00304648 0.0027177 0.00240761 0.00211626 0.00184369 0.00158986 0.00135478
0.00113848 0.000940949 0.000762194 0.000602275 0.000461131 0.000338793
0.000235289 0.000150591 8.46982e-05 3.76403e-05 9.41753e-06;
#X coords 0 1 1024 0 200 140 1 0 0;
#X restore 567 211 graph;
#N canvas 0 22 450 278 (subpatch) 0;
#X array spectrum 1024 float 2;
#X coords 0 1 1024 -1 200 140 1;
#X restore 461 53 graph;
#X obj 163 441 delay 10;
#X obj 276 220 r amplitude-threshold;
#X obj 167 242 > 65;
#X obj 237 413 delay 100;
#N canvas 0 23 450 300 table-max 0;
#X obj 133 40 inlet;
#X obj 137 245 outlet;
#X restore 66 220 pd table-max;
#X obj 167 266 t f b;
#X connect 0 0 6 0;
#X connect 0 0 17 0;
#X connect 1 0 2 0;
#X connect 2 0 12 0;
#X connect 2 0 25 0;
#X connect 3 0 5 0;
#X connect 4 0 3 0;
#X connect 6 0 16 0;
#X connect 7 0 12 0;
#X connect 8 0 10 0;
#X connect 8 1 9 0;
#X connect 11 0 8 0;
#X connect 14 0 13 0;
#X connect 15 0 29 0;
#X connect 16 0 32 0;
#X connect 17 0 4 0;
#X connect 17 0 15 0;
#X connect 18 0 19 0;
#X connect 19 0 28 0;
#X connect 20 0 23 0;
#X connect 22 0 20 0;
#X connect 23 0 27 0;
#X connect 23 1 43 0;
#X connect 23 2 24 0;
#X connect 24 0 25 0;
#X connect 25 0 22 1;
#X connect 26 0 25 0;
#X connect 27 0 40 0;
#X connect 29 0 42 0;
#X connect 29 1 30 0;
#X connect 32 0 18 0;
#X connect 32 1 31 0;
#X connect 40 0 19 0;
#X connect 41 0 42 1;
#X connect 42 0 45 0;
#X connect 43 0 26 0;
#X connect 45 0 22 0;
#X connect 45 1 24 0;
#X restore 71 139 pd pitch-tracking;
#X obj 746 68 dsp;
#X floatatom 782 88 5 0 0 0 - - -, f 5;
#X floatatom 746 88 5 0 0 0 - - -, f 5;
#X obj 746 45 tgl 20 0 empty empty empty 17 7 0 10 -257985 -1 -1 0
1;
#X floatatom 154 252 5 0 0 0 - - -, f 5;
#X obj 212 112 sigmund~ pitch env;
#X floatatom 180 198 5 0 0 0 - - -, f 5;
#X obj 675 12 loadbang;
#X msg 660 86 1;
#X msg 729 193 0.3;
#X msg 683 796 \$1 10000;
#X obj 394 836 s debug;
#X floatatom 394 814 5 0 0 0 - - -, f 5;
#X floatatom 170 547 5 0 0 0 - - -, f 5;
#X obj 281 504 print;
#X obj 176 173 r amplitude-threshold;
#N canvas 495 32 544 442 time 0;
#X obj 96 57 inlet;
#X obj 99 283 outlet;
#X obj 182 173 f;
#X obj 182 194 t f f;
#X msg 317 126 44100;
#X floatatom 317 168 0 0 0 0 - - -;
#X obj 317 232 /;
#X obj 317 189 t b f;
#X floatatom 317 253 0 0 0 0 - - -;
#X msg 317 211 1000;
#X obj 317 274 * 1024;
#X floatatom 317 295 0 0 0 0 - - -;
#X obj 317 147 / 1;
#X text 355 296 ms;
#X obj 182 228 * 23.22;
#X obj 182 112 bang~;
#X obj 96 81 tgl 15 0 empty empty empty 17 7 0 10 -262144 -1 -1 0 1
;
#X obj 179 81 switch~ 1024 1 1;
#X msg 199 144 0;
#X floatatom 182 249 5 0 0 0 - - -, f 5;
#X obj 209 172 + 1;
#X obj 96 111 t f f;
#X obj 123 134 sel 1;
#X connect 0 0 16 0;
#X connect 2 0 3 0;
#X connect 3 0 14 0;
#X connect 3 1 20 0;
#X connect 4 0 12 0;
#X connect 5 0 7 0;
#X connect 6 0 8 0;
#X connect 7 0 9 0;
#X connect 7 1 6 1;
#X connect 8 0 10 0;
#X connect 9 0 6 0;
#X connect 10 0 11 0;
#X connect 12 0 5 0;
#X connect 14 0 19 0;
#X connect 15 0 2 0;
#X connect 16 0 21 0;
#X connect 18 0 2 1;
#X connect 19 0 1 0;
#X connect 20 0 2 1;
#X connect 21 0 17 0;
#X connect 21 1 22 0;
#X connect 22 0 18 0;
#X restore 823 688 pd time;
#X obj 823 664 tgl 15 0 empty empty empty 17 7 0 10 -262144 -1 -1 0
1;
#X floatatom 823 716 5 0 0 0 - - -, f 5;
#X obj 882 699 timer;
#X obj 882 674 sel 0 1;
#X obj 881 637 tgl 15 0 empty empty empty 17 7 0 10 -262144 -1 -1 0
1;
#X floatatom 882 720 0 0 0 0 - - -;
#N canvas 765 23 819 427 play-dirac 0;
#X obj 163 86 t b b b;
#X msg 207 108 \; pd dsp 1;
#X obj 185 143 dirac~;
#X floatatom 269 145 0 0 0 0 - - -;
#X obj 185 185 tabwrite~ unit::response;
#N canvas 0 0 450 300 (subpatch) 0;
#X array dirac 64 float 1;
#A 0 0.643811 -0.458637 -0.131914 -0.0379412 -0.0109127 -0.00313873
-0.000902764 -0.000259654 -7.46821e-05 -2.14802e-05 -6.17815e-06 -1.77697e-06
-5.11094e-07 -1.47002e-07 -4.22808e-08 -1.21609e-08 -3.49772e-09 -1.00602e-09
-2.89353e-10 -8.3224e-11 -2.3937e-11 -6.88479e-12 -1.98021e-12 -5.69551e-13
-1.63815e-13 -4.71167e-14 -1.35518e-14 -3.89778e-15 -1.12108e-15 -3.22448e-16
-9.27428e-17 -2.66748e-17 -7.67224e-18 -2.2067e-18 -6.34694e-19 -1.82552e-19
0 0 0 0 0 0 0 0 0 0 0 0 0 0 0 0 0 0 0 0 0 0 0 0 0 0 0 0;
#X coords 0 1 63 -1 400 300 1 0 0;
#X restore 368 35 graph;
#X msg 80 293 \; unit::response resize 64;
#X text 42 363 we thought it useful to have a tool that would be able
to easily plot the unit::response of a system;
#X text 199 65 press me;
#X msg 163 65 bang;
#X obj 185 164 hip~ 5000;
#X obj 64 196 tabplay~ dirac;
#X obj 64 77 inlet;
#X obj 64 98 t b;
#X obj 64 239 outlet~;
#X connect 0 0 4 0;
#X connect 0 1 2 0;
#X connect 0 2 1 0;
#X connect 2 0 10 0;
#X connect 3 0 10 1;
#X connect 9 0 0 0;
#X connect 10 0 4 0;
#X connect 11 0 14 0;
#X connect 12 0 13 0;
#X connect 13 0 11 0;
#X restore 938 688 pd play-dirac;
#X obj 938 721 *~ 1;
#X obj 931 573 t b b;
#X msg 931 597 1;
#X msg 888 595 0;
#X obj 883 570 sel 1;
#X obj 1008 549 bng 15 250 50 0 empty empty empty 17 7 0 10 -262144
-1 -1;
#X obj 931 547 delay 30000;
#X floatatom 319 146 5 0 0 0 - - -, f 5;
#X floatatom 212 133 5 0 0 0 - - -, f 5;
#X obj 170 522 pipe 0;
#N canvas 273 23 501 433 compare-in-out 0;
#X obj 79 35 inlet;
#X obj 319 35 inlet;
#X floatatom 205 85 5 0 0 0 - - -, f 5;
#X floatatom 241 85 5 0 0 0 - - -, f 5;
#X obj 205 108 ==;
#X obj 195 183 f;
#X obj 195 206 t f f;
#X obj 222 183 + 1;
#X msg 210 162 0;
#X obj 79 56 t f f;
#X obj 106 79 change;
#X obj 106 100 t b f;
#X msg 120 271 set \$1;
#X floatatom 120 292 5 0 0 0 - - -, f 5;
#X obj 315 156 r step;
#X obj 315 217 pipe 0;
#X obj 348 178 r analyse-delay;
#X obj 228 348 tabwrite input-melodie;
#X obj 205 129 sel 1;
#X floatatom 348 198 5 0 0 0 - - -, f 5;
#X obj 143 383 outlet;
#X obj 195 242 sel 1;
#X connect 0 0 9 0;
#X connect 1 0 3 0;
#X connect 2 0 4 0;
#X connect 3 0 4 1;
#X connect 4 0 18 0;
#X connect 4 0 20 0;
#X connect 5 0 6 0;
#X connect 6 0 21 0;
#X connect 6 1 7 0;
#X connect 7 0 5 1;
#X connect 8 0 5 1;
#X connect 9 0 2 0;
#X connect 9 1 10 0;
#X connect 10 0 11 0;
#X connect 11 0 8 0;
#X connect 11 1 12 0;
#X connect 12 0 13 0;
#X connect 13 0 17 0;
#X connect 14 0 15 0;
#X connect 15 0 17 1;
#X connect 16 0 19 0;
#X connect 18 0 5 0;
#X connect 19 0 15 1;
#X connect 21 0 13 0;
#X restore 337 403 pd compare-in-out;
#X obj 422 284 s analyse-delay;
#X floatatom 422 263 5 0 0 0 - - -, f 5;
#X floatatom 406 382 5 0 0 0 - - -, f 5;
#X floatatom 288 388 5 0 0 0 - - -, f 5;
#X floatatom 363 349 5 0 0 0 - - -, f 5;
#X obj 437 346 r analyse-delay;
#X obj 440 366 pipe 0;
#X obj 299 427 print;
#X obj 306 343 f;
#X obj 258 267 sel 1;
#N canvas 537 44 1139 689 snac 1;
#X obj 180 606 outlet;
#X obj 323 201 bng 25 250 50 0 empty empty empty 17 7 0 10 -262144
-260097 -1;
#X text 309 183 change phases;
#X obj 176 93 vsl 15 100 0 1 0 1 empty empty 1 4 9 0 10 -262144 -260097
-1 5600 0;
#N canvas 658 217 529 406 test-signal-harmonics1234--- 0;
#X obj 88 226 osc~ 100;
#X obj 165 227 osc~ 200;
#X obj 243 226 osc~ 300;
#X obj 88 369 outlet~;
#X msg 45 103 344.531;
#X obj 45 77 loadbang;
#X obj 35 19 inlet;
#X obj 35 145 f;
#X obj 109 22 inlet;
#X text 76 19 freq;
#X text 433 22 random phases;
#N canvas 0 22 359 215 random 0;
#X obj 29 33 inlet;
#X obj 105 72 random 100;
#X obj 190 71 random 100;
#X obj 105 119 / 100;
#X obj 190 117 / 100;
#X obj 29 72 random 100;
#X obj 29 119 / 100;
#X obj 29 159 outlet;
#X obj 105 157 outlet;
#X obj 190 155 outlet;
#X obj 266 71 random 100;
#X obj 266 117 / 100;
#X obj 266 155 outlet;
#X connect 0 0 5 0;
#X connect 0 0 1 0;
#X connect 0 0 2 0;
#X connect 0 0 10 0;
#X connect 1 0 3 0;
#X connect 2 0 4 0;
#X connect 3 0 8 0;
#X connect 4 0 9 0;
#X connect 5 0 6 0;
#X connect 6 0 7 0;
#X connect 10 0 11 0;
#X connect 11 0 12 0;
#X restore 396 134 pd random;
#X obj 186 20 inlet;
#X obj 264 20 inlet;
#X obj 349 22 inlet;
#X obj 165 266 *~ 1;
#X obj 243 268 *~ 1;
#X obj 88 267 *~ 1;
#X text 152 53 magnitudes;
#X obj 109 79 clip 0 1;
#X obj 186 80 clip 0 1;
#X obj 264 78 clip 0 1;
#X obj 243 189 * 3;
#X obj 328 268 *~ 1;
#X obj 396 21 inlet;
#X obj 328 233 osc~ 400;
#X obj 417 82 loadbang;
#X msg 438 194 0;
#X obj 261 319 block~ 256;
#X obj 88 313 *~ 0.25;
#X obj 183 310 noise~;
#X obj 328 189 * 4;
#X obj 165 191 * 2;
#X connect 0 0 17 0;
#X connect 1 0 15 0;
#X connect 2 0 16 0;
#X connect 4 0 7 0;
#X connect 5 0 4 0;
#X connect 6 0 7 0;
#X connect 7 0 0 0;
#X connect 7 0 22 0;
#X connect 7 0 31 0;
#X connect 7 0 32 0;
#X connect 8 0 19 0;
#X connect 11 0 0 1;
#X connect 11 1 1 1;
#X connect 11 2 2 1;
#X connect 11 3 25 1;
#X connect 12 0 20 0;
#X connect 13 0 21 0;
#X connect 14 0 23 1;
#X connect 15 0 29 0;
#X connect 16 0 29 0;
#X connect 17 0 29 0;
#X connect 19 0 17 1;
#X connect 20 0 15 1;
#X connect 21 0 16 1;
#X connect 22 0 2 0;
#X connect 23 0 29 0;
#X connect 24 0 11 0;
#X connect 25 0 23 0;
#X connect 26 0 11 0;
#X connect 27 0 0 1;
#X connect 27 0 1 1;
#X connect 27 0 2 1;
#X connect 27 0 25 1;
#X connect 29 0 3 0;
#X connect 31 0 25 0;
#X connect 32 0 1 0;
#X restore 140 237 pd test-signal-harmonics1234---;
#X obj 213 93 vsl 15 100 0 1 0 1 empty empty 2 4 9 0 10 -262144 -260097
-1 8900 0;
#X obj 249 93 vsl 15 100 0 1 0 1 empty empty 3 4 9 0 10 -262144 -260097
-1 5700 0;
#X obj 286 93 vsl 15 100 0 1 0 1 empty empty 4 4 9 0 10 -262144 -260097
-1 0 0;
#X text 176 70 harmonic components;
#X floatatom 183 210 4 0 0 0 - - -, f 4;
#X floatatom 219 210 4 0 0 0 - - -, f 4;
#X floatatom 257 210 4 0 0 0 - - -, f 4;
#X floatatom 293 210 4 0 0 0 - - -, f 4;
#X obj 143 28 hsl 128 15 80 2000 1 1 empty empty frequency 20 8 0 10
-262144 -260097 -1 4300 0;
#X floatatom 151 53 5 0 0 0 - - -, f 5;
#X obj 396 81 cnv 15 400 70 empty empty empty 20 12 0 14 -233017 -66577
0;
#N canvas 0 22 450 300 (subpatch) 0;
#X array \$0-signal 1024 float 0;
#X coords 0 1 1023 -1 400 140 1;
#X restore 396 11 graph;
#N canvas 1199 612 255 403 autocorrelation 0;
#X obj 18 16 inlet~;
#X obj 18 225 *~;
#X obj 45 225 *~;
#X text 76 223 make power spectrum;
#X obj 33 42 tabreceive~ \$0-zeropad;
#X obj 18 67 *~;
#X obj 18 354 tabwrite~ \$0-correlation;
#X obj 33 324 r \$0-draw;
#X obj 58 125 tabwrite~ \$0-signal;
#X obj 91 99 bng 15 250 50 0 empty empty empty 17 7 0 10 -262144 -1
-1;
#X obj 58 76 r \$0-draw;
#X obj 18 190 rfft~;
#X obj 18 260 rifft~;
#X text 51 288 normalisation;
#X text 65 161 normalisation;
#X obj 167 80 block~ 1024;
#X obj 18 161 /~ 32;
#X obj 104 326 bang~;
#X connect 0 0 5 0;
#X connect 1 0 12 0;
#X connect 2 0 12 0;
#X connect 4 0 5 1;
#X connect 5 0 8 0;
#X connect 5 0 16 0;
#X connect 7 0 6 0;
#X connect 9 0 8 0;
#X connect 10 0 8 0;
#X connect 11 0 1 0;
#X connect 11 0 1 1;
#X connect 11 1 2 0;
#X connect 11 1 2 1;
#X connect 12 0 6 0;
#X connect 16 0 11 0;
#X restore 39 341 pd autocorrelation;
#N canvas 573 420 450 300 zeropad 0;
#X obj 40 117 until;
#X obj 40 173 f;
#X obj 71 173 + 1;
#X obj 40 266 tabwrite \$0-zeropad;
#X obj 40 90 t f b;
#X obj 40 202 t f f;
#X text 102 102 rectangular window;
#X obj 40 34 loadbang;
#N canvas 0 22 450 300 (subpatch) 0;
#X array \$0-zeropad 1024 float 0;
#X coords 0 1.1 1023 -1 200 140 1;
#X restore 226 58 graph;
#X obj 228 255 s \$0-zeropad;
#X msg 228 225 const 0;
#X msg 40 236 1;
#X msg 55 146 0;
#X msg 40 60 512;
#X connect 0 0 1 0;
#X connect 1 0 2 0;
#X connect 1 0 5 0;
#X connect 2 0 1 1;
#X connect 4 0 0 0;
#X connect 4 1 12 0;
#X connect 5 0 11 0;
#X connect 5 1 3 1;
#X connect 7 0 13 0;
#X connect 10 0 9 0;
#X connect 11 0 3 0;
#X connect 12 0 1 1;
#X connect 13 0 4 0;
#X restore 256 432 pd zeropad;
#X obj 395 262 cnv 15 400 70 empty empty empty 20 12 0 14 -233017 -66577
0;
#N canvas 0 22 450 300 (subpatch) 0;
#X array \$0-correlation 1024 float 0;
#X coords 0 128 1023 -128 400 140 1;
#X restore 395 192 graph;
#N canvas 0 23 299 203 draw 0;
#X obj 45 102 s \$0-draw;
#X obj 45 27 inlet;
#X floatatom 100 41 5 0 0 0 - - -, f 5;
#X obj 45 68 metro 50;
#X obj 126 101 block~ 1024;
#X obj 148 59 bang~;
#X connect 1 0 3 0;
#X connect 2 0 3 1;
#X connect 5 0 0 0;
#X restore -7 150 pd draw;
#X obj -7 115 tgl 25 1 empty empty empty 17 7 0 10 -262144 -1 -1 1
1;
#N canvas 163 23 647 946 SNAC 0;
#N canvas 75 160 324 693 one-coefficient 0;
#X obj 51 559 tabread \$0-correlation;
#X obj 66 243 tabread \$0-signal;
#X obj 183 244 tabread \$0-signal;
#X obj 66 273 t f f;
#X obj 183 272 t f f;
#X obj 66 302 *;
#X obj 183 299 *;
#X obj 66 329 +;
#X obj 51 590 /;
#X obj 66 102 bng 15 250 50 0 empty empty empty 17 7 0 10 -262144 -1
-1;
#X floatatom 119 607 10 0 0 0 - - -, f 10;
#X obj 66 420 f;
#X obj 66 196 t f f;
#X obj 66 391 +;
#X obj 66 134 t b b;
#X msg 131 374 0;
#X obj 51 456 f;
#X obj 51 505 f 0;
#X obj 51 480 t b f;
#X floatatom 148 522 10 0 0 0 - - -, f 10;
#X floatatom 198 85 5 0 0 0 - - -, f 5;
#X obj 183 213 +;
#X text 236 86 tau;
#X obj 66 36 inlet;
#X obj 66 68 t b f;
#X obj 51 619 outlet;
#X floatatom 119 585 10 0 0 0 - - -, f 10;
#X obj 193 617 outlet;
#X obj 78 505 * 0.5;
#X text 91 621 snac;
#X text 235 619 norm;
#X obj 135 98 t b f;
#X obj 134 142 -;
#X msg 135 121 511;
#X obj 66 169 for++ 0 511;
#X connect 0 0 8 0;
#X connect 0 0 26 0;
#X connect 1 0 3 0;
#X connect 2 0 4 0;
#X connect 3 0 5 0;
#X connect 3 1 5 1;
#X connect 4 0 6 0;
#X connect 4 1 6 1;
#X connect 5 0 7 0;
#X connect 6 0 7 1;
#X connect 7 0 13 0;
#X connect 8 0 25 0;
#X connect 8 0 10 0;
#X connect 9 0 14 0;
#X connect 11 0 13 1;
#X connect 11 0 16 1;
#X connect 12 0 1 0;
#X connect 12 1 21 0;
#X connect 13 0 11 0;
#X connect 14 0 34 0;
#X connect 14 1 15 0;
#X connect 15 0 13 1;
#X connect 16 0 18 0;
#X connect 17 0 0 0;
#X connect 18 0 17 0;
#X connect 18 1 28 0;
#X connect 20 0 21 1;
#X connect 20 0 17 1;
#X connect 21 0 2 0;
#X connect 23 0 24 0;
#X connect 24 0 9 0;
#X connect 24 1 20 0;
#X connect 24 1 31 0;
#X connect 28 0 8 1;
#X connect 28 0 27 0;
#X connect 28 0 19 0;
#X connect 31 0 33 0;
#X connect 31 1 32 1;
#X connect 33 0 32 0;
#X connect 34 0 12 0;
#X connect 34 1 16 0;
#X restore 19 155 pd one-coefficient;
#X obj 19 106 t f f;
#X obj 19 210 tabwrite \$0-snac;
#X obj 19 33 r \$0-draw;
#X obj 19 68 for++ 0 512 1;
#X obj 171 29 r \$0-draw;
#X obj 171 63 t b b;
#X obj 187 376 f;
#X obj 338 213 tabread \$0-signal;
#X obj 171 569 tabwrite \$0-snac;
#X obj 171 439 /;
#X obj 338 239 t f f;
#X obj 338 266 *;
#X obj 187 341 +;
#X obj 187 310 * -1;
#X msg 252 311 0;
#X obj 338 133 t b f;
#X obj 338 189 -;
#X msg 338 162 512;
#X obj 150 37 bng 15 250 50 0 empty empty empty 17 7 0 10 -262144 -1
-1;
#X obj 171 145 tabread \$0-correlation;
#X obj 252 335 tabread \$0-correlation;
#X obj 186 406 * 0.5;
#X obj 252 359 * 2;
#X obj 187 199 tabread \$0-signal;
#X obj 187 227 t f f;
#X obj 187 254 *;
#X obj 171 116 t f f f f;
#X obj 187 283 +;
#X text 391 336 init;
#X text 31 134 naive method;
#X text 214 284 desintegrate;
#X text 255 30 special normalization;
#X text 256 50 this should really be done with doubles;
#X obj 187 174 - 1;
#X obj 304 453 t b f;
#X msg 304 477 1;
#X obj 304 504 -;
#X obj 304 427 *;
#X floatatom 304 530 10 0 0 0 - - -, f 10;
#X obj 171 480 * 1;
#X floatatom 329 427 10 0 0 0 - - -, f 10;
#X obj 319 403 / 512;
#X obj 319 357 loadbang;
#X text 348 379 bias;
#X obj 479 26 inlet;
#X obj 479 84 clip 0 1;
#X text 443 26 bias;
#X floatatom 479 116 5 0 0 0 - - -, f 5;
#X obj 31 566 max;
#X obj 43 496 spigot;
#X msg 102 442 1;
#X msg 51 442 0;
#X floatatom 31 617 5 0 0 0 - - -, f 5;
#X msg 61 526 0;
#X obj 16 401 sel 0;
#X msg 124 728 44100;
#X msg 114 547 0;
#X obj 98 598 sel 1;
#X obj 139 634 f;
#X obj 137 280 t f f;
#X obj 124 659 f;
#X floatatom 124 683 5 0 0 0 - - -, f 5;
#X obj 31 592 t f f f;
#X obj 21 520 t f f;
#X obj 51 367 moses 50;
#X obj 32 649 f;
#X floatatom 32 670 5 0 0 0 - - -, f 5;
#X obj 98 577 >=;
#X obj 124 749 / 256;
#X obj 124 703 t b f;
#X floatatom 124 770 5 0 0 0 - - -, f 5;
#X obj 102 394 moses 500;
#X floatatom 124 813 0 0 0 0 - - -;
#X obj 124 791 ftom;
#X obj 124 857 i;
#X floatatom 124 878 5 0 0 0 - - -, f 5;
#X obj 124 912 outlet;
#X obj 76 644 spigot;
#X obj 115 624 tgl 15 0 empty empty empty 17 7 0 10 -262144 -1 -1 0
1;
#X obj 227 808 outlet;
#X msg 319 380 0.1;
#N canvas 0 23 450 300 for++0-511 0;
#X obj 145 160 f;
#X obj 173 160 + 1;
#X obj 145 111 until;
#X obj 145 90 t f b;
#X msg 172 140 0;
#X obj 145 43 inlet;
#X obj 145 241 outlet;
#X obj 145 191 t f f f;
#X obj 209 220 sel \$2;
#X obj 209 241 outlet;
#X msg 145 69 512;
#X connect 0 0 7 0;
#X connect 1 0 0 1;
#X connect 2 0 0 0;
#X connect 3 0 2 0;
#X connect 3 1 4 0;
#X connect 4 0 0 1;
#X connect 5 0 10 0;
#X connect 7 0 8 0;
#X connect 7 1 6 0;
#X connect 7 2 1 0;
#X connect 8 0 9 0;
#X connect 10 0 3 0;
#X restore 171 92 pd for++0-511;
#X obj 321 560 clip -1 1;
#X obj 171 527 t a;
#X obj 494 210 block~ 1024;
#X obj 106 23 bang~;
#X obj 44 696 > 0.94;
#X obj 124 836 + 0.7;
#X connect 0 0 2 0;
#X connect 1 0 0 0;
#X connect 1 1 2 1;
#X connect 4 0 1 0;
#X connect 5 0 6 0;
#X connect 6 0 82 0;
#X connect 6 1 15 0;
#X connect 7 0 22 0;
#X connect 7 0 13 1;
#X connect 8 0 11 0;
#X connect 10 0 40 0;
#X connect 11 0 12 0;
#X connect 11 1 12 1;
#X connect 12 0 28 1;
#X connect 13 0 7 0;
#X connect 14 0 13 0;
#X connect 15 0 21 0;
#X connect 16 0 18 0;
#X connect 16 1 17 1;
#X connect 17 0 8 0;
#X connect 18 0 17 0;
#X connect 19 0 6 0;
#X connect 20 0 10 0;
#X connect 21 0 23 0;
#X connect 22 0 10 1;
#X connect 23 0 7 0;
#X connect 24 0 25 0;
#X connect 25 0 26 0;
#X connect 25 1 26 1;
#X connect 26 0 28 0;
#X connect 27 0 20 0;
#X connect 27 1 9 1;
#X connect 27 1 38 0;
#X connect 27 2 34 0;
#X connect 27 3 16 0;
#X connect 27 3 60 0;
#X connect 28 0 14 0;
#X connect 34 0 24 0;
#X connect 35 0 36 0;
#X connect 35 1 37 1;
#X connect 36 0 37 0;
#X connect 37 0 39 0;
#X connect 37 0 40 1;
#X connect 38 0 35 0;
#X connect 40 0 84 0;
#X connect 42 0 38 1;
#X connect 42 0 41 0;
#X connect 43 0 81 0;
#X connect 45 0 46 0;
#X connect 46 0 42 0;
#X connect 46 0 48 0;
#X connect 49 0 63 0;
#X connect 50 0 64 0;
#X connect 51 0 50 1;
#X connect 52 0 50 1;
#X connect 53 0 66 1;
#X connect 54 0 49 1;
#X connect 55 0 54 0;
#X connect 55 0 57 0;
#X connect 56 0 69 0;
#X connect 57 0 68 1;
#X connect 58 0 59 0;
#X connect 58 0 66 0;
#X connect 59 0 61 1;
#X connect 60 0 65 0;
#X connect 60 1 59 1;
#X connect 61 0 62 0;
#X connect 62 0 70 0;
#X connect 63 0 53 0;
#X connect 63 1 49 1;
#X connect 63 2 68 1;
#X connect 64 0 68 0;
#X connect 64 1 49 0;
#X connect 65 0 52 0;
#X connect 65 0 55 0;
#X connect 65 1 72 0;
#X connect 66 0 67 0;
#X connect 67 0 87 0;
#X connect 68 0 58 0;
#X connect 69 0 71 0;
#X connect 70 0 56 0;
#X connect 70 1 69 1;
#X connect 71 0 74 0;
#X connect 72 0 51 0;
#X connect 72 1 52 0;
#X connect 73 0 88 0;
#X connect 74 0 73 0;
#X connect 75 0 76 0;
#X connect 76 0 77 0;
#X connect 78 0 61 0;
#X connect 79 0 78 1;
#X connect 81 0 42 0;
#X connect 82 0 27 0;
#X connect 82 1 78 0;
#X connect 84 0 50 0;
#X connect 84 0 9 0;
#X connect 87 0 79 0;
#X connect 87 0 80 0;
#X connect 88 0 75 0;
#X restore 256 354 pd SNAC;
#X text 538 -8 zero-padded test signal;
#X obj 396 429 cnv 15 400 70 empty empty empty 20 12 0 14 -233017 -66577
0;
#N canvas 0 22 450 300 (subpatch) 0;
#X array \$0-snac 1024 float 0;
#X coords 0 1 1023 -1 400 140 1;
#X restore 396 359 graph;
#X obj -13 75 loadbang;
#X obj 64 224 +~;
#N canvas 0 23 361 383 filters 0;
#X obj 47 79 hip~ 80;
#X obj 47 41 inlet~;
#X obj 47 196 outlet~;
#X text 103 79 DC filter;
#X text 140 140 sibilant filter;
#X obj 240 139 lp6_cheb~ 1000;
#X obj 125 41 inlet;
#X text 165 40 freq;
#X obj 47 100 lop~ 1000;
#X obj 47 120 lop~ 1000;
#X obj 47 140 lop~ 1000;
#X obj 47 160 lop~ 1000;
#X connect 0 0 8 0;
#X connect 1 0 0 0;
#X connect 6 0 5 1;
#X connect 6 0 8 1;
#X connect 6 0 9 1;
#X connect 6 0 10 1;
#X connect 6 0 11 1;
#X connect 8 0 9 0;
#X connect 9 0 10 0;
#X connect 10 0 11 0;
#X connect 11 0 2 0;
#X restore 39 310 pd filters;
#X obj 126 307 nbx 4 14 1000 3000 1 1 empty empty empty 0 -8 0 10 -262144
-1 -1 1000 256;
#X text 155 289 lo pass filter freq;
#N canvas 0 22 450 300 (subpatch) 0;
#X array \$0-peaks 1024 float 2;
#X coords 0 1 1024 -1 400 140 1;
#X restore 396 359 graph;
#N canvas 753 64 208 279 frequency 0;
#X obj 47 36 inlet;
#X obj 47 166 samplerate~;
#X obj 47 202 /;
#X obj 47 135 t b f;
#X obj 47 71 sel 0 1 2;
#X msg 47 104 256;
#X msg 81 104 128;
#X obj 47 236 outlet;
#X msg 116 105 64;
#X connect 0 0 4 0;
#X connect 1 0 2 0;
#X connect 2 0 7 0;
#X connect 3 0 1 0;
#X connect 3 1 2 1;
#X connect 4 0 5 0;
#X connect 4 1 6 0;
#X connect 4 2 8 0;
#X connect 5 0 3 0;
#X connect 6 0 3 0;
#X connect 8 0 3 0;
#X restore 15 27 pd frequency;
#X obj 15 2 hradio 15 1 0 3 empty empty empty 0 -8 0 10 -262144 -260097
-1 0;
#X floatatom 24 50 5 0 0 0 - - -, f 5;
#N canvas 61 75 476 492 peaks 0;
#X obj 76 51 r \$0-draw;
#X obj 78 94 delay 50;
#X obj 133 142 tabplay~ \$0-snac;
#X obj 145 180 delta~;
#X obj 140 216 <~ 0;
#X obj 139 251 delta~;
#X obj 140 299 *~;
#X obj 193 214 clip~ 0 1;
#X obj 140 348 tabwrite~ \$0-peaks;
#X obj 198 252 delay~ 2 2;
#X obj 289 139 declare -lib zexy;
#X text 295 176 [delta~] needs cyclone;
#X connect 0 0 1 0;
#X connect 1 0 2 0;
#X connect 1 0 8 0;
#X connect 2 0 3 0;
#X connect 2 0 7 0;
#X connect 3 0 4 0;
#X connect 4 0 5 0;
#X connect 5 0 6 0;
#X connect 6 0 8 0;
#X connect 7 0 9 0;
#X connect 9 0 6 1;
#X restore 256 401 pd peaks;
#X obj 253 458 cnv 15 100 60 empty empty empty 20 12 0 14 -260097 -66577
0;
#N canvas 759 68 442 484 info 0;
#X text 30 62 method invented by Philip McLeod;
#X obj 29 87 pddplink http://miracle.otago.ac.nz/tartini/papers/Philip_McLeod_PhD.pdf
;
#X text 29 16 demo plot of SNAC function: specially normalized autocorrelation
;
#X text 29 127 The SNAC function does not look very stable at first
sight \, but in case of perfect correlation it's period peak is stable
at magnitude 1 An integration process is involved in the normalization
\, which should better be done with double precision floats. Probably
this would improve stability at the right edge of the SNAC output block.
;
#X text 29 227 Notice how SNAC needs little more than one period of
a signal to establish it's periodicity. A very useful aspect for real
time applications. This demo has 512 samples for the input (~86 at
samplerate 44K1).;
#X text 29 360 Katja Vetter Jan 2012;
#X text 29 296 Like regular autocorrelation \, SNAC is prone to octave
errors in the case of weak fundamentals.;
#X restore 276 482 pd info;
#X text 456 342 SNAC: specially normalized autocorrelation;
#X obj 259 309 hsl 100 15 0 1 0 1 empty empty bias 20 8 0 10 -262144
-260097 -1 1000 1;
#X floatatom 264 329 5 0 0 0 - - -, f 5;
#X obj 326 44 dsp;
#X floatatom 362 67 5 0 0 0 - - -, f 5;
#X obj 326 23 tgl 15 0 empty empty empty 17 7 0 10 -262144 -1 -1 0
1;
#X floatatom 326 67 5 0 0 0 - - -, f 5;
#X floatatom -24 314 5 0 0 0 - - -, f 5;
#X floatatom 256 377 5 0 0 0 - - -, f 5;
#X obj 184 416 s snac;
#X obj 298 378 tgl 15 0 empty empty empty 17 7 0 10 -262144 -1 -1 0
1;
#X msg -13 96 1;
#X obj 90 107 noise~;
#X obj 64 196 adc~ 1 2;
#X obj 120 138 *~ 0.02;
#X floatatom 145 84 5 0 0 0 - - -, f 5;
#X floatatom 209 271 5 0 0 0 - - -, f 5;
#X obj 36 261 delwrite~ input-delay 2000;
#X obj 36 286 vd~ input-delay 0;
#X obj 64 416 dac~ 1 2;
#X connect 1 0 4 5;
#X connect 3 0 4 1;
#X connect 3 0 9 0;
#X connect 5 0 4 2;
#X connect 5 0 10 0;
#X connect 6 0 4 3;
#X connect 6 0 11 0;
#X connect 7 0 4 4;
#X connect 7 0 12 0;
#X connect 13 0 4 0;
#X connect 13 0 14 0;
#X connect 22 0 21 0;
#X connect 23 0 47 0;
#X connect 23 1 49 0;
#X connect 27 0 50 0;
#X connect 28 0 56 0;
#X connect 28 0 58 0;
#X connect 28 0 58 1;
#X connect 29 0 17 0;
#X connect 30 0 29 1;
#X connect 33 0 35 0;
#X connect 33 0 4 0;
#X connect 34 0 33 0;
#X connect 40 0 23 0;
#X connect 40 0 41 0;
#X connect 42 0 45 0;
#X connect 42 1 43 0;
#X connect 44 0 42 0;
#X connect 47 0 48 0;
#X connect 47 0 0 0;
#X connect 50 0 22 0;
#X connect 51 0 53 0;
#X connect 52 0 28 0;
#X connect 52 1 28 1;
#X connect 53 0 29 0;
#X connect 54 0 53 1;
#X connect 55 0 57 0;
#X connect 57 0 29 0;
#X restore 363 328 pd snac;
#X floatatom 336 815 5 0 0 0 - - -, f 5;
#X obj 639 690 lop~ 800;
#X obj 336 837 s dibugi;
#X obj 639 567 osc~ 100;
#X obj 123 195 > 65;
#X msg 425 244 450;
#X obj 675 36 delay 0;
#X text 741 26 mit leni 24000;
#X text 721 170 hier muss loadbang;
#X text 455 246 sony: 487;
#X obj 871 406 tgl 15 0 empty empty empty 17 7 0 10 -262144 -1 -1 0
1;
#X obj 871 430 metro 5000;
#X obj 904 817 phasor~ 150;
#X obj 904 858 *~;
#X msg 983 836 1 20 \, 0 20 100;
#X obj 683 817 line~;
#X obj 983 857 vline~;
#X connect 0 0 136 0;
#X connect 1 0 0 1;
#X connect 2 0 184 0;
#X connect 3 0 2 1;
#X connect 4 0 3 0;
#X connect 5 0 3 0;
#X connect 6 0 186 0;
#X connect 7 0 8 0;
#X connect 8 0 62 0;
#X connect 8 1 6 0;
#X connect 9 0 11 0;
#X connect 9 0 113 0;
#X connect 10 0 27 0;
#X connect 11 0 12 0;
#X connect 12 0 43 0;
#X connect 12 1 13 0;
#X connect 13 0 11 1;
#X connect 14 0 11 1;
#X connect 15 0 19 0;
#X connect 16 0 8 0;
#X connect 19 0 135 0;
#X connect 19 0 178 0;
#X connect 21 0 23 0;
#X connect 22 0 26 0;
#X connect 22 1 28 0;
#X connect 23 0 24 0;
#X connect 26 0 30 0;
#X connect 27 0 9 0;
#X connect 27 1 14 0;
#X connect 28 0 29 0;
#X connect 28 1 24 0;
#X connect 30 0 72 0;
#X connect 31 0 32 0;
#X connect 32 0 71 0;
#X connect 34 0 35 0;
#X connect 35 0 1 0;
#X connect 41 0 42 0;
#X connect 42 1 15 0;
#X connect 43 0 47 0;
#X connect 44 0 46 0;
#X connect 46 0 41 0;
#X connect 46 1 45 0;
#X connect 47 0 44 0;
#X connect 49 0 50 0;
#X connect 50 0 51 0;
#X connect 51 0 55 0;
#X connect 52 0 53 0;
#X connect 53 0 54 0;
#X connect 53 0 84 0;
#X connect 54 0 55 0;
#X connect 57 0 170 0;
#X connect 59 0 132 0;
#X connect 59 0 132 1;
#X connect 60 0 65 0;
#X connect 62 0 3 0;
#X connect 63 0 135 1;
#X connect 65 0 66 0;
#X connect 66 0 147 0;
#X connect 68 0 67 1;
#X connect 69 0 41 0;
#X connect 70 0 41 0;
#X connect 71 0 67 0;
#X connect 71 0 175 0;
#X connect 72 0 31 0;
#X connect 73 0 121 0;
#X connect 73 1 58 1;
#X connect 73 2 77 0;
#X connect 74 0 76 1;
#X connect 75 0 76 0;
#X connect 76 0 68 0;
#X connect 77 0 75 0;
#X connect 77 1 74 0;
#X connect 79 0 78 0;
#X connect 81 0 58 0;
#X connect 82 0 81 1;
#X connect 83 0 54 0;
#X connect 84 0 83 0;
#X connect 94 0 114 0;
#X connect 111 0 112 0;
#X connect 112 0 126 0;
#X connect 114 0 115 0;
#X connect 115 0 117 0;
#X connect 116 0 118 0;
#X connect 117 0 116 0;
#X connect 118 0 133 0;
#X connect 121 0 67 0;
#X connect 122 0 124 0;
#X connect 124 0 22 0;
#X connect 125 0 124 1;
#X connect 125 0 181 0;
#X connect 127 0 82 0;
#X connect 135 0 16 0;
#X connect 136 0 122 0;
#X connect 136 1 141 0;
#X connect 136 2 143 0;
#X connect 136 2 187 0;
#X connect 137 0 139 0;
#X connect 137 1 138 0;
#X connect 140 0 137 0;
#X connect 142 0 169 0;
#X connect 142 1 168 0;
#X connect 144 0 188 0;
#X connect 144 0 189 0;
#X connect 145 0 10 0;
#X connect 146 0 60 0;
#X connect 147 0 198 0;
#X connect 149 0 148 0;
#X connect 150 0 73 0;
#X connect 152 0 187 1;
#X connect 153 0 155 0;
#X connect 154 0 153 0;
#X connect 156 0 159 0;
#X connect 157 0 156 1;
#X connect 157 1 156 0;
#X connect 158 0 154 0;
#X connect 160 0 161 0;
#X connect 162 0 163 0;
#X connect 162 1 160 0;
#X connect 163 0 158 0;
#X connect 164 0 158 0;
#X connect 165 0 164 0;
#X connect 166 0 162 0;
#X connect 167 0 162 0;
#X connect 168 0 187 0;
#X connect 169 0 122 0;
#X connect 170 0 150 0;
#X connect 173 0 172 0;
#X connect 174 0 171 1;
#X connect 174 0 134 0;
#X connect 174 0 183 0;
#X connect 176 0 171 0;
#X connect 176 0 149 0;
#X connect 177 0 178 1;
#X connect 178 0 174 0;
#X connect 181 0 180 0;
#X connect 182 0 176 0;
#X connect 183 0 185 0;
#X connect 184 0 59 0;
#X connect 186 0 2 0;
#X connect 187 0 125 0;
#X connect 188 0 173 0;
#X connect 189 0 145 0;
#X connect 189 0 193 0;
#X connect 193 0 194 0;
#X connect 194 0 197 0;
#X connect 195 0 196 0;
#X connect 196 0 132 0;
#X connect 196 0 132 1;
#X connect 197 0 199 0;
#X connect 198 0 59 1;
#X connect 199 0 196 1;
