#N canvas 61 71 1615 912 10;
#X declare -path abs;
#X obj 71 7 adc~;
#X obj 71 112 *~;
#X floatatom 98 92 5 0 0 0 - - -, f 5;
#X obj 404 129 env~;
#X obj 405 173 vu 15 120 empty empty -1 -8 0 10 -66577 -1 1 0;
#X obj 404 150 - 100;
#X floatatom 404 300 5 0 0 0 - - -, f 5;
#X obj 639 706 *~;
#X obj 663 677 vline~;
#X msg 814 645 0 20;
#X msg 775 645 1 20;
#X floatatom 639 544 5 0 0 0 - - -, f 5;
#X msg 606 496 440;
#X obj 585 528 t b f;
#X obj 575 106 metro 500;
#X obj 575 44 tgl 20 0 empty empty empty 17 7 0 10 -4034 -1 -1 1 1
;
#X obj 575 161 f;
#X obj 575 182 t f f;
#X obj 604 161 + 1;
#X msg 588 137 0;
#X obj 575 399 t a;
#X obj 575 479 mtof;
#X text 778 625 on;
#X text 816 626 off;
#X floatatom 575 420 5 0 0 0 - - -, f 5;
#X obj 83 394 print pitch1;
#X obj 71 184 fiddle~ 2048;
#X floatatom 162 304 5 0 0 0 - - -, f 5;
#X obj 71 291 t f b;
#X msg 162 327 set \$1;
#X msg 162 349 76.2958;
#X obj 162 393 print amplitude;
#X floatatom 71 347 5 0 0 0 - - -, f 5;
#X obj 575 74 t f b;
#X obj 98 314 t b b;
#X obj 154 423 t b b;
#X obj 71 367 t f f;
#X floatatom 71 457 5 0 0 0 - - -, f 5;
#X obj 71 477 i;
#X msg 78 142 vibrato 200 0.5;
#X msg 338 79 \; pd dsp 1;
#X obj 138 83 loadbang;
#X msg 138 103 1;
#X text 596 43 play sequenz;
#X obj 716 568 cnv 15 120 17 empty empty <-Klangerzeugung 2 8 0 12
-204786 -66577 0;
#X obj 340 46 declare -path abs;
#X obj 820 357 step 1 soll-melodie;
#N canvas 0 23 577 352 (subpatch) 0;
#X array soll-melodie 17 float 3;
#A 0 32.5664 50 0 57 0 53 0 50 0 49 0 50 52 53 0 55 52;
#X coords 1 70 17 40 481 300 1 0 0;
#X restore 820 57 graph;
#X obj 575 346 tabread soll-melodie;
#X obj 575 367 sel 0;
#X obj 575 202 % 16;
#X floatatom 575 247 5 0 0 0 - - -, f 5;
#X obj 605 291 s step;
#X obj 575 268 t f f;
#X obj 575 224 + 1;
#X obj 1148 405 cnv 15 150 190 empty empty Save_&_Load 18 12 0 12 -204786
-66577 0;
#X obj 1163 428 bng 20 250 50 0 empty empty empty 17 7 0 10 -258113
-1 -1;
#X obj 1163 453 savepanel;
#X msg 1163 534 write \$1;
#X obj 1228 429 bng 20 250 50 0 empty empty empty 17 7 0 10 -4034 -1
-1;
#X obj 1228 453 openpanel;
#X msg 1228 534 read \$1;
#X obj 1163 568 s soll-melodie;
#N canvas 0 23 450 278 (subpatch) 0;
#X array input-melodie 17 float 3;
#A 0 1 0 0 0 0 0 0 0 0 0 0 0 0 0 0 0 0;
#X coords 1 90 17 30 200 140 1 0 0;
#X restore 330 433 graph;
#X obj 169 493 r step;
#X obj 71 793 tabwrite input-melodie;
#X obj 639 817 *~;
#X obj 639 838 dac~ 1 2;
#X obj 683 701 vsl 15 50 0.01 1 1 0 empty empty empty 0 -9 0 10 -4034
-1 -1 4900 1;
#X obj 683 797 line~ \$1 20;
#X obj 702 699 cnv 15 120 17 empty empty <-MasterVolume 2 8 0 12 -204786
-66577 0;
#X msg 665 645 0.7 50 \, 0 500 500;
#X obj 597 440 nbx 5 14 -1e+37 1e+37 0 0 empty empty empty 0 -8 0 10
-4034 -1 -1 0 256;
#X obj 659 439 cnv 15 85 17 empty empty <-transpose 2 8 0 12 -204786
-66577 0;
#X obj 683 758 - 0.01;
#X floatatom 683 778 5 0 0 0 - - -, f 5;
#N canvas 0 23 450 300 ohne-step 0;
#X obj 149 170 f;
#X obj 149 192 t f f;
#X obj 178 170 + 1;
#X msg 162 146 0;
#X obj 123 74 t b b;
#X floatatom 149 221 5 0 0 0 - - -, f 5;
#X obj 117 107 delay 5000;
#X msg 214 160 set 0;
#X connect 0 0 1 0;
#X connect 1 0 5 0;
#X connect 1 1 2 0;
#X connect 2 0 0 1;
#X connect 3 0 0 1;
#X connect 4 0 6 0;
#X connect 4 1 0 0;
#X connect 6 0 3 0;
#X connect 6 0 7 0;
#X restore 269 392 pd ohne-step;
#X obj 71 715 spigot;
#X obj 119 689 tgl 20 0 empty empty empty 17 7 0 10 -4034 -1 -1 0 1
;
#X msg 587 310 set soll-melodie;
#X msg 597 328 set input-melodie;
#X floatatom 71 512 5 0 0 0 - - -, f 5;
#X obj 71 437 + 0.5;
#X obj 169 524 t b f f;
#X obj 235 594 tabread soll-melodie;
#X obj 208 614 tabread input-melodie;
#X obj 208 640 !=;
#X obj 208 567 t f f;
#X obj 231 710 s input-melodie;
#X msg 231 687 const 0;
#X obj 288 688 cnv 15 160 17 empty empty <-reset_Input-Melodie 2 8
0 12 -204786 -66577 0;
#X obj 71 28 delwrite~ input-delay 500;
#X obj 71 58 delread~ input-delay 100;
#X floatatom 224 43 5 0 0 0 - - -, f 5;
#X msg 85 164 amp-range 65 65;
#X obj 71 765 spigot;
#X obj 119 739 tgl 20 0 empty empty empty 17 7 0 10 -4034 -1 -1 1 1
;
#X msg 1234 493 symbol /Volumes/DATA/uni/HAW/2018/Mendieninformatik-ausgewaehlteThemen/audioProzessingforMINF/midi-files/fuge.txt
;
#X msg 1234 472 set symbol \$1;
#X obj 1334 472 loadbang;
#X obj 367 606 cnv 15 170 17 empty empty <-compare_input_to_soll 2
8 0 12 -204786 -66577 0;
#X obj 182 186 cnv 15 125 17 empty empty <-pitch_detection 2 8 0 12
-204786 -66577 0;
#X obj 192 156 cnv 15 145 17 empty empty <-threshold_settings 2 8 0
12 -204786 -66577 0;
#X obj 639 567 osc~ 100;
#X obj 693 318 cnv 15 190 17 empty empty <-change_replay_soll-input
2 8 0 12 -204786 -66577 0;
#X text 913 623 es kann eine molodie gewählt und abgespielt werden.
im moment müsste noch der step sequenzer eingeblendet werden. dann
kann man ins mik;
#X obj 112 459 cnv 15 210 17 empty empty ]-quantize_to_full_midi_notes
2 8 0 12 -204786 -66577 0;
#X obj 1354 706 cnv 15 15 15 empty empty / 2 8 0 12 -204786 -66577
0;
#X obj 1353 691 cnv 15 15 15 empty empty empty 2 8 0 12 -204786 -66577
0;
#N canvas 99 59 452 644 %correct 0;
#X obj 55 576 outlet;
#X obj 74 25 r \$0-metro;
#X obj 91 243 tabread input-melodie;
#X obj 72 274 tabread soll-melodie;
#X obj 78 134 until;
#X msg 78 113 16;
#X obj 72 193 f;
#X obj 99 193 + 1;
#X obj 72 214 t f f f;
#X msg 95 165 1;
#X obj 65 53 bng 15 250 50 0 empty empty empty 17 7 0 10 -262144 -1
-1;
#X obj 45 318 sel 0;
#X obj 100 308 sel 0;
#X obj 72 349 ==;
#X obj 67 427 f;
#X obj 105 427 + 1;
#X obj 55 554 nbx 3 14 -1e+37 1e+37 0 0 empty empty % 45 8 0 12 -204786
-1 -1 0 256;
#X obj 105 479 * 10;
#X obj 198 434 print correct;
#X obj 196 394 pack f f;
#X msg 146 367 0;
#X obj 105 458 t f f;
#X obj 68 83 t b b b b;
#X obj 72 379 t b f;
#X msg 105 500 set \$1;
#X connect 1 0 10 0;
#X connect 2 0 12 0;
#X connect 3 0 11 0;
#X connect 4 0 6 0;
#X connect 5 0 4 0;
#X connect 6 0 8 0;
#X connect 7 0 6 1;
#X connect 8 0 3 0;
#X connect 8 1 2 0;
#X connect 8 2 7 0;
#X connect 8 2 19 1;
#X connect 9 0 6 1;
#X connect 10 0 22 0;
#X connect 11 1 13 0;
#X connect 12 1 13 1;
#X connect 13 0 23 0;
#X connect 14 0 15 0;
#X connect 15 0 21 0;
#X connect 16 0 0 0;
#X connect 17 0 24 0;
#X connect 20 0 14 1;
#X connect 21 0 17 0;
#X connect 21 1 14 1;
#X connect 22 0 16 0;
#X connect 22 1 5 0;
#X connect 22 2 9 0;
#X connect 22 3 20 0;
#X connect 23 0 14 0;
#X connect 23 1 15 1;
#X connect 24 0 16 0;
#X restore 473 668 pd %correct;
#X obj 850 357 step 2 soll-melodie;
#X obj 880 357 step 3 soll-melodie;
#X obj 910 357 step 4 soll-melodie;
#X obj 940 357 step 5 soll-melodie;
#X obj 970 357 step 6 soll-melodie;
#X obj 1000 357 step 7 soll-melodie;
#X obj 1030 357 step 8 soll-melodie;
#X obj 1060 357 step 9 soll-melodie;
#X obj 1090 357 step 10 soll-melodie;
#X obj 1120 357 step 11 soll-melodie;
#X obj 1150 357 step 12 soll-melodie;
#X obj 1180 357 step 13 soll-melodie;
#X obj 1210 357 step 14 soll-melodie;
#X obj 1240 357 step 15 soll-melodie;
#X obj 1270 357 step 16 soll-melodie;
#N canvas 0 23 919 625 table-init 0;
#X obj 250 316 tabwrite soll-melodie;
#X obj 293 250 t f f;
#X obj 320 229 + 1;
#X obj 293 229 f;
#X obj 256 116 t b b;
#X msg 307 200 1;
#X obj 256 90 bng 15 250 50 0 empty empty empty 17 7 0 10 -262144 -1
-1;
#X msg 250 166 50 \, 0 \, 57 \, 0 \, 53 \, 0 \, 50 \, 0 \, 49 \, 0
\, 50 \, 52 \, 53 \, 0 \, 55 \, 52;
#X obj 250 197 t f b;
#X connect 1 0 0 1;
#X connect 1 1 2 0;
#X connect 2 0 3 1;
#X connect 3 0 1 0;
#X connect 4 0 7 0;
#X connect 4 1 5 0;
#X connect 5 0 3 1;
#X connect 6 0 4 0;
#X connect 7 0 8 0;
#X connect 8 0 0 0;
#X connect 8 1 3 0;
#X restore 1370 267 pd table-init;
#X obj 476 24 loadbang;
#X msg 476 45 1;
#X obj 634 135 s \$0-metro;
#X obj 473 692 nbx 3 14 -1e+37 1e+37 0 0 empty empty % 45 8 0 12 -204786
-1 -1 0 256;
#X obj 473 715 change;
#X obj 473 754 line 0 20;
#X msg 473 735 \$1 1000;
#X obj 473 776 nbx 5 20 -1e+37 1e+37 0 0 empty empty % 85 10 0 16 -4034
-1 -1 0 256;
#X msg 234 334 \; input-melodie const 1;
#X obj 377 336 cnv 15 140 17 empty empty <-reset_input_table 2 8 0
12 -204786 -66577 0;
#X msg 81 692 0;
#X floatatom 119 254 5 0 0 0 - - -, f 5;
#X floatatom 325 256 5 0 0 0 - - -, f 5;
#X text 118 272 pitch;
#X text 302 275 envelope;
#X obj 233 275 spigot;
#X obj 287 294 > 65;
#X obj 269 252 tgl 15 0 empty empty empty 17 7 0 10 -262144 -1 -1 0
1;
#X obj 119 228 sigmund~ -hop 512 pitch env;
#X obj 476 67 s \$0-loadbang-1;
#X obj 119 718 r \$0-loadbang-1;
#X obj 822 683 r \$0-loadbang-1;
#X obj 869 477 cnv 15 100 60 empty empty empty 20 12 0 14 -261234 -66577
0;
#N canvas 0 23 450 300 test_adc2dac 0;
#X obj 126 176 dac~;
#X obj 125 113 adc~;
#X restore 871 499 pd test_adc2dac;
#X obj 329 796 random 100;
#X obj 327 767 metro 1000;
#X obj 232 756 delay 1000;
#X msg 233 779 1;
#X obj 575 460 + 12;
#X obj 473 827 s correct;
#X connect 0 0 91 0;
#X connect 0 1 91 0;
#X connect 1 0 26 0;
#X connect 1 0 144 0;
#X connect 2 0 1 1;
#X connect 3 0 5 0;
#X connect 4 0 6 0;
#X connect 5 0 4 0;
#X connect 7 0 66 0;
#X connect 8 0 7 1;
#X connect 9 0 8 0;
#X connect 10 0 8 0;
#X connect 11 0 103 0;
#X connect 12 0 13 0;
#X connect 13 0 71 0;
#X connect 13 1 11 0;
#X connect 14 0 16 0;
#X connect 14 0 128 0;
#X connect 15 0 33 0;
#X connect 16 0 17 0;
#X connect 17 0 50 0;
#X connect 17 1 18 0;
#X connect 18 0 16 1;
#X connect 19 0 16 1;
#X connect 20 0 24 0;
#X connect 21 0 13 0;
#X connect 24 0 154 0;
#X connect 26 0 28 0;
#X connect 26 3 27 0;
#X connect 27 0 29 0;
#X connect 28 0 32 0;
#X connect 28 1 34 0;
#X connect 29 0 30 0;
#X connect 30 0 31 0;
#X connect 32 0 36 0;
#X connect 33 0 14 0;
#X connect 33 1 19 0;
#X connect 34 0 35 0;
#X connect 34 1 30 0;
#X connect 36 0 82 0;
#X connect 36 1 25 0;
#X connect 37 0 38 0;
#X connect 38 0 81 0;
#X connect 39 0 26 0;
#X connect 41 0 42 0;
#X connect 41 0 39 0;
#X connect 41 0 94 0;
#X connect 42 0 2 0;
#X connect 48 0 49 0;
#X connect 49 1 20 0;
#X connect 50 0 54 0;
#X connect 51 0 53 0;
#X connect 53 0 48 0;
#X connect 53 1 52 0;
#X connect 54 0 51 0;
#X connect 56 0 57 0;
#X connect 57 0 58 0;
#X connect 58 0 62 0;
#X connect 59 0 60 0;
#X connect 60 0 61 0;
#X connect 60 0 98 0;
#X connect 61 0 62 0;
#X connect 64 0 83 0;
#X connect 66 0 67 0;
#X connect 66 0 67 1;
#X connect 68 0 74 0;
#X connect 69 0 66 1;
#X connect 71 0 8 0;
#X connect 72 0 154 1;
#X connect 74 0 75 0;
#X connect 75 0 69 0;
#X connect 77 0 95 0;
#X connect 78 0 77 1;
#X connect 79 0 48 0;
#X connect 80 0 48 0;
#X connect 81 0 77 0;
#X connect 82 0 37 0;
#X connect 83 0 136 0;
#X connect 83 1 65 1;
#X connect 83 2 87 0;
#X connect 84 0 86 1;
#X connect 85 0 86 0;
#X connect 86 0 78 0;
#X connect 87 0 85 0;
#X connect 87 1 84 0;
#X connect 89 0 88 0;
#X connect 92 0 1 0;
#X connect 92 0 3 0;
#X connect 93 0 92 0;
#X connect 94 0 26 0;
#X connect 95 0 65 0;
#X connect 96 0 95 1;
#X connect 97 0 61 0;
#X connect 98 0 97 0;
#X connect 103 0 7 0;
#X connect 109 0 129 0;
#X connect 126 0 127 0;
#X connect 127 0 145 0;
#X connect 127 0 15 0;
#X connect 129 0 130 0;
#X connect 130 0 132 0;
#X connect 131 0 133 0;
#X connect 132 0 131 0;
#X connect 133 0 155 0;
#X connect 136 0 77 0;
#X connect 137 0 141 0;
#X connect 138 0 142 0;
#X connect 142 0 143 0;
#X connect 143 0 141 1;
#X connect 144 0 137 0;
#X connect 144 1 138 0;
#X connect 146 0 96 0;
#X connect 147 0 68 0;
#X connect 151 0 150 0;
#X connect 152 0 153 0;
#X connect 153 0 151 0;
#X connect 154 0 21 0;
