#N canvas 894 527 717 501 10;
#X obj 1 77 pack f \$1;
#X obj 1 -107 inlet;
#X obj 1 118 outlet;
#X obj 98 139 tabwrite \$2;
#X obj 98 94 unpack f f;
#X text -10 -149 arguments: <step nr> <table name>;
#X obj 74 -70 sel \$1;
#X obj 1 1 cnv 15 28 28 empty actual-step-\$1 empty 20 12 0 14 -233017
-66577 0;
#X obj 1 15 nbx 2 14 0 200 0 0 empty empty \$1 10 -7 0 10 -262144 -1
-1 50 256;
#X obj 74 -120 r step;
#X obj 192 -1 tabread \$2;
#X obj 74 -99 t f b;
#X obj 192 -23 \$1;
#X obj 98 115 i;
#X text -9 193 name cnv: actual-step-#1;
#X obj 101 24 pack f \$1;
#X msg 101 49 \; actual-step-\$2 color \$1;
#X msg 132 2 10;
#X msg 101 2 11;
#X obj 269 29 % 8;
#X obj 269 50 sel 1;
#X obj 269 -15 \$1;
#X obj 269 -41 bng 15 250 50 0 empty empty empty 17 7 0 10 -262144
-1 -1;
#X obj 270 104 pack f \$1;
#X msg 270 129 \; actual-step-\$2 color \$1;
#X msg 269 76 13;
#X obj 74 -41 t b b b;
#X obj 250 -92 loadbang;
#X obj 132 -40 t b;
#X obj 303 71 t b;
#X connect 0 0 2 0;
#X connect 0 0 4 0;
#X connect 1 0 8 0;
#X connect 4 0 13 0;
#X connect 4 1 3 1;
#X connect 6 0 26 0;
#X connect 6 1 28 0;
#X connect 8 0 0 0;
#X connect 9 0 11 0;
#X connect 10 0 8 0;
#X connect 11 0 6 0;
#X connect 11 1 12 0;
#X connect 12 0 10 0;
#X connect 13 0 3 0;
#X connect 15 0 16 0;
#X connect 17 0 15 0;
#X connect 18 0 15 0;
#X connect 19 0 20 0;
#X connect 20 0 25 0;
#X connect 20 1 29 0;
#X connect 21 0 19 0;
#X connect 22 0 21 0;
#X connect 23 0 24 0;
#X connect 25 0 23 0;
#X connect 26 0 8 0;
#X connect 26 2 18 0;
#X connect 27 0 22 0;
#X connect 28 0 21 0;
#X connect 29 0 17 0;
#X coords 0 -1 1 1 30 30 2 0 0;
